<svg xmlns="http://www.w3.org/2000/svg" viewBox="0 0 24 24">
  <path fill="#000000" fill-rule="evenodd" clip-rule="evenodd" d="M12 8.5a3.5 3.5 0 100 7 3.5 3.5 0 000-7zm-1.25-6a1 1 0 00-.98.8l-.28 1.4a7.96 7.96 0 00-1.9.79l-1.2-.78a1 1 0 00-1.25.13L3.84 6.13a1 1 0 00-.13 1.25l.78 1.2a7.96 7.96 0 00-.79 1.9l-1.4.28a1 1 0 00-.8.98v2.5a1 1 0 00.8.98l1.4.28c.18.67.45 1.31.79 1.9l-.78 1.2a1 1 0 00.13 1.25l1.28 1.28a1 1 0 001.25.13l1.2-.78c.6.34 1.24.6 1.9.79l.28 1.4a1 1 0 00.98.8h2.5a1 1 0 00.98-.8l.28-1.4c.67-.18 1.31-.45 1.9-.79l1.2.78a1 1 0 001.25-.13l1.28-1.28a1 1 0 00.13-1.25l-.78-1.2c.34-.6.6-1.24.79-1.9l1.4-.28a1 1 0 00.8-.98v-2.5a1 1 0 00-.8-.98l-1.4-.28a7.96 7.96 0 00-.79-1.9l.78-1.2a1 1 0 00-.13-1.25L18.75 4.9a1 1 0 00-1.25-.13l-1.2.78a7.96 7.96 0 00-1.9-.79l-.28-1.4a1 1 0 00-.98-.8h-2.5z"/>
</svg>
